<svg version="1.1"
     id="Layer_1"
     xmlns="http://www.w3.org/2000/svg"
     xmlns:xlink="http://www.w3.org/1999/xlink"
     x="0px"
     y="0px"
     viewBox="0 0 512 512"
     style="enable-background:new 0 0 512 512;"
     xml:space="preserve">
    <path style="fill:none;"
          d="M502.356,216.058l-8.077,10.248l8.077,10.238l-8.077,10.238l8.077,10.238l-8.077,10.238l8.077,10.238 l-8.077,10.248l8.077,10.238l-8.077,10.238l8.077,10.238l-6.058,10.238c-12.964,0-24.646,5.432-32.925,14.135 c-7.31,7.694-11.954,17.952-12.459,29.28H61.087c-0.505-11.328-5.149-21.586-12.459-29.28c-4.927-5.18-11.046-9.198-17.931-11.601 c-4.695-1.646-9.733-2.534-14.993-2.534l-6.058-10.238l8.077-10.238l-8.077-10.238l8.077-10.238l-8.077-10.248l8.077-10.238 L9.645,257.02l8.077-10.238l-8.077-10.238l8.077-10.238l-8.077-10.248l8.077-10.238l-8.077-10.248l6.058-10.248 c7.572,0,14.721-1.858,21.001-5.139c5.27-2.746,9.935-6.512,13.741-11.015c6.674-7.906,10.692-18.133,10.692-29.28h389.726 c0,11.147,4.018,21.374,10.692,29.28c8.33,9.874,20.809,16.154,34.742,16.154l6.058,10.248l-8.077,10.248L502.356,216.058z" />
    <path style="fill:none;"
          d="M446.451,283.089c0,12.853-5.008,24.949-14.105,34.035c-9.097,9.097-21.183,14.105-34.035,14.105 H30.696c-4.695-1.646-9.733-2.534-14.993-2.534l-6.058-10.238l5.856-7.421l2.221-2.817l-8.077-10.238l8.077-10.238l-8.077-10.248 l8.077-10.238L9.645,257.02l8.077-10.238l-8.077-10.238l8.077-10.238l-8.077-10.248l8.077-10.238l-4.291-5.442l-3.786-4.806 l6.058-10.248c7.572,0,14.721-1.858,21.001-5.139h294.193c20.708,0,40.992,8.4,55.632,23.05l45.818,45.818 c2.464,2.464,4.654,5.18,6.482,8.067C443.816,264.875,446.451,273.851,446.451,283.089z" />
    <path style="fill:none;"
          d="M426.258,283.089c0,7.714-3.13,14.701-8.188,19.759s-12.045,8.188-19.759,8.188H15.501l2.221-2.817 l-8.077-10.238l8.077-10.238l-8.077-10.248l2.625-3.322l5.452-6.916L9.645,257.02l8.077-10.238l-8.077-10.238l8.077-10.238 l-8.077-10.248l8.077-10.238l-4.291-5.442h317.465c15.508,0,30.391,6.169,41.355,17.134l45.818,45.818 c1.424,1.424,2.686,2.989,3.746,4.665c1.858,2.888,3.17,6.088,3.857,9.44c0.162,0.777,0.293,1.555,0.384,2.342 c0.03,0.242,0.061,0.495,0.081,0.747c0.03,0.283,0.05,0.565,0.061,0.848c0.02,0.232,0.03,0.475,0.04,0.707 C426.248,282.413,426.258,282.746,426.258,283.089z" />
    <path style="fill:#78B9EB;"
          d="M402.548,247.807h-79.042c-26.192,0-47.425-21.233-47.425-47.425l0,0h54.814 c15.513,0,30.391,6.163,41.359,17.132L402.548,247.807z" />
    <path style="fill:none;"
          d="M426.258,283.089c0,7.714-3.13,14.701-8.188,19.759s-12.045,8.188-19.759,8.188H15.501l2.221-2.817 l-8.077-10.238l8.077-10.238l-8.077-10.248l2.625-3.322h412.504c0.363,1.07,0.666,2.161,0.899,3.261 c0.162,0.777,0.293,1.555,0.384,2.342c0.03,0.242,0.061,0.495,0.081,0.747c0.03,0.283,0.05,0.565,0.061,0.848 c0.02,0.232,0.03,0.464,0.04,0.707C426.248,282.413,426.258,282.746,426.258,283.089z" />
    <path d="M503.924,246.782L512,236.545l-8.078-10.243l8.077-10.244l-8.078-10.242l7.594-9.634l-10.897-18.432h-4.319 c-20.878,0-37.862-16.984-37.862-37.862v-7.572H53.565v7.572c0,20.878-16.984,37.862-37.862,37.862h-4.319L0.486,196.184 l7.594,9.634L0.001,216.06l8.077,10.244L0,236.545l8.076,10.237L0,257.019l8.077,10.242L0,277.501l8.077,10.241L0,297.981 l8.077,10.239l-7.594,9.624l10.901,18.425h4.318c20.318,0,36.93,15.889,37.818,36.174l0.317,7.241h404.325l0.317-7.241 c0.887-20.285,17.499-36.174,37.818-36.174h4.318l10.901-18.425l-7.594-9.624L512,297.981l-8.077-10.24L512,277.501l-8.077-10.24 L512,257.019L503.924,246.782z M492.712,216.061l-8.077,10.244l8.076,10.238l-8.078,10.239l8.078,10.238l-8.077,10.24l8.077,10.24 l-8.077,10.241l8.077,10.24l-8.077,10.239l8.561,10.851l-1.322,2.234c-23.983,1.969-43.466,19.803-47.714,43.234H67.842 c-4.249-23.431-23.731-41.266-47.714-43.234l-1.322-2.234l8.561-10.851l-8.077-10.239l8.077-10.24L19.289,277.5l8.077-10.24 l-8.077-10.24l8.078-10.239l-8.078-10.239l8.076-10.239l-8.077-10.244l8.076-10.24l-8.561-10.863l1.327-2.246 c24.647-2.048,44.56-21.032,48.039-45.251h375.66c3.479,24.219,23.393,43.203,48.039,45.251l1.327,2.246l-8.561,10.863 L492.712,216.061z" />
    <rect x="84.356"
          y="335.255"
          width="343.282"
          height="15.145" />
    <rect x="95.725"
          y="192.813"
          width="15.145"
          height="15.145" />
    <path d="M377.608,212.158c-12.477-12.477-29.068-19.349-46.715-19.349h-62.386H130.804v15.145h138.239 c3.702,26.754,26.707,47.425,54.464,47.425h75.905l11.222,11.222h-87.127v15.145h95.117c0.029,0.447,0.066,0.893,0.066,1.345 c0,5.44-2.121,10.555-5.971,14.406c-3.85,3.851-8.967,5.971-14.407,5.971H130.804v15.145H398.31c9.486,0,18.405-3.695,25.116-10.406 c6.71-6.711,10.406-15.63,10.406-25.115c0-9.485-3.695-18.404-10.406-25.115L377.608,212.158z M323.505,240.234 c-19.386,0-35.584-13.914-39.131-32.281h46.52c13.601,0,26.388,5.297,36.004,14.914l17.366,17.366h-60.759V240.234z" />
    <rect x="94.917"
          y="303.471"
          width="15.145"
          height="15.145" />
    <rect x="222.679"
          y="222.174"
          width="15.145"
          height="15.145" />
    <rect x="192.389"
          y="222.174"
          width="15.145"
          height="15.145" />
    <rect x="131.81"
          y="222.174"
          width="15.145"
          height="15.145" />
    <rect x="162.1"
          y="222.174"
          width="15.145"
          height="15.145" />
</svg>

