<svg id="Layer_1"
     enable-background="new 0 0 512.081 512.081"
     viewBox="0 0 512.081 512.081"
     xmlns="http://www.w3.org/2000/svg">
    <g>
        <path d="m504.626 54.251h-238.457l14.211-21.444c7.372-11.125 19.741-17.767 33.086-17.767h191.16c9.386 0 9.813-15 0-15h-191.16c-18.389 0-35.432 9.151-45.59 24.48l-20.549 31.01h-15.483c-40.043 0-77.905 23.011-95.952 58.827 0 0-122.159 242.704-123.398 245.602-12.8 29.018-17.856 66.022-5.061 95.982 14.449 33.823 48.825 56.099 85.388 56.099h411.805c9.386 0 9.813-15 0-15h-411.805c-26.509 0-51.994-14.011-66.091-36.545h53.786 307.706c9.386 0 9.813-15 0-15h-253.418c7.295-4.396 14.105-9.71 20.283-15.888h.001l61.333-61.334c.196-.196.365-.41.536-.623h47.17c32.609 0 59.139-26.322 59.139-58.677v-40.526h45.329v40.526c0 32.354 26.529 58.677 59.139 58.677h76.893c9.386 0 9.813-15 0-15h-76.893c-24.338 0-44.139-19.594-44.139-43.677v-129.388c0-24.083 19.801-43.677 44.139-43.677h76.893c9.386 0 9.813-15 0-15h-76.893c-32.609 0-59.139 26.322-59.139 58.677v73.862h-45.329v-73.827c0-32.342-26.52-58.664-59.117-58.677l-49.359-.019c-9.635 0-9.688 14.995-.006 15l49.359.019c24.329.009 44.123 19.603 44.123 43.677v129.354c0 24.083-19.801 43.677-44.139 43.677h-230.836l97.802-195.425c6.791-13.156 20.26-21.317 35.169-21.317 9.826 0 9.828-15-.001-15-6.422 0-12.652 1.101-18.469 3.172 15.648-32.38 47.834-53.55 84.053-53.55h272.781c9.939 0 9.939-16.28 0-16.28zm-360.145 364.749c-17.087 17.086-39.803 26.495-63.965 26.495h-61.023c-8.476-23.934-3.945-52.028 4.925-75.025h168.593z" />
        <path d="m504.626 445.495h-64.266c-9.386 0-9.813 15 0 15h64.266c9.386 0 9.813-15 0-15z" />
    </g>
</svg>